<?xml version="1.0" encoding="utf-8"?>
<!-- Generator: Adobe Illustrator 24.0.1, SVG Export Plug-In . SVG Version: 6.00 Build 0)  -->
<svg version="1.1" id="Layer_1" xmlns="http://www.w3.org/2000/svg" xmlns:xlink="http://www.w3.org/1999/xlink" x="0px" y="0px"
	 viewBox="0 0 113.39 113.39" style="enable-background:new 0 0 113.39 113.39;" xml:space="preserve">
<style type="text/css">
	.st0{fill:#114591;}
	.st1{fill:#4CA22F;}
	.st2{fill:#A2C617;}
</style>
<g>
	<g>
		<g>
			<path class="st0" d="M19.14,66.43c0,0.86-0.67,1.54-1.57,1.54c-0.69,0-1.21-0.4-1.52-1.14l-0.67-1.62H8.75l-0.67,1.62
				c-0.29,0.74-0.81,1.14-1.5,1.14c-0.9,0-1.59-0.69-1.59-1.54c0-0.24,0.07-0.52,0.19-0.86l5.37-12.77
				c0.29-0.71,0.81-1.09,1.52-1.09c0.71,0,1.24,0.38,1.52,1.09l5.35,12.77C19.09,65.9,19.14,66.19,19.14,66.43z M9.79,62.57h4.52
				l-2.23-6.13L9.79,62.57z"/>
			<path class="st0" d="M20.85,66.33v-8.77c0-0.93,0.69-1.64,1.64-1.64h5.92c0.78,0,1.38,0.57,1.38,1.35s-0.59,1.35-1.38,1.35h-4.35
				v7.7c0,0.93-0.69,1.64-1.59,1.64C21.54,67.97,20.85,67.26,20.85,66.33z"/>
			<path class="st0" d="M43.68,61.79c0,3.57-2.4,6.18-5.71,6.18c-1.47,0-2.71-0.52-3.52-1.43v4.09c0,0.93-0.69,1.62-1.59,1.62
				c-0.93,0-1.62-0.69-1.62-1.62V57.23c0-0.9,0.69-1.59,1.59-1.59c0.86,0,1.5,0.64,1.54,1.52c0.81-0.95,2.07-1.5,3.59-1.5
				C41.28,55.66,43.68,58.22,43.68,61.79z M40.42,61.81c0-1.9-1.26-3.26-3.04-3.26c-1.78,0-2.97,1.31-2.97,3.23
				c0,1.93,1.21,3.26,2.97,3.26C39.14,65.05,40.42,63.69,40.42,61.81z"/>
			<path class="st0" d="M56.16,57.27v9.06c0,0.93-0.69,1.64-1.59,1.64s-1.59-0.71-1.59-1.64v-5.16l-4.85,6.01
				c-0.45,0.55-0.88,0.78-1.43,0.78c-0.9,0-1.59-0.71-1.59-1.64v-9.06c0-0.93,0.69-1.62,1.62-1.62c0.9,0,1.59,0.69,1.59,1.62v5.23
				l4.83-6.06c0.45-0.55,0.88-0.78,1.43-0.78C55.47,55.66,56.16,56.35,56.16,57.27z"/>
			<path class="st0" d="M68.52,53.44c0,0.81-0.64,1.45-1.5,1.45h-5.8v3.45h3.78c3.09,0,5.16,1.85,5.16,4.61
				c0,2.81-2.09,4.73-5.16,4.73h-5.35c-0.95,0-1.64-0.69-1.64-1.64V53.64c0-0.95,0.69-1.64,1.64-1.64h7.37
				C67.88,51.99,68.52,52.61,68.52,53.44z M61.23,60.98v3.95h3.54c1.4,0,2.23-0.71,2.23-1.97c0-1.24-0.83-1.97-2.23-1.97H61.23z"/>
			<path class="st0" d="M83.17,61.17v0.07c0,1-0.71,1.64-1.76,1.64h-6.7c0.38,1.47,1.57,2.33,3.3,2.33c0.86,0,1.74-0.24,2.45-0.69
				c0.24-0.14,0.45-0.21,0.69-0.21c0.74,0,1.31,0.55,1.31,1.28c0,0.52-0.24,0.9-0.81,1.28c-1.07,0.71-2.35,1.09-3.73,1.09
				c-3.71,0-6.44-2.64-6.44-6.16c0-3.49,2.64-6.16,6.11-6.16C80.8,55.66,83.17,57.99,83.17,61.17z M74.71,60.62h5.35
				c-0.05-1.4-1.05-2.38-2.54-2.38C76.11,58.25,75.07,59.17,74.71,60.62z"/>
			<path class="st0" d="M84.74,61.79c0-3.45,2.76-6.13,6.3-6.13c2,0,3.85,0.95,4.75,2.33c0.21,0.33,0.29,0.59,0.29,0.86
				c0,0.78-0.64,1.43-1.43,1.43c-0.45,0-0.81-0.14-1.09-0.5c-0.59-0.71-1.43-1.19-2.47-1.19c-1.81,0-3.09,1.33-3.09,3.21
				c0,1.9,1.28,3.23,3.09,3.23c1.02,0,1.83-0.48,2.47-1.19c0.33-0.38,0.67-0.5,1.09-0.5c0.78,0,1.43,0.64,1.43,1.43
				c0,0.29-0.07,0.52-0.26,0.81c-0.98,1.5-2.69,2.4-4.78,2.4C87.5,67.97,84.74,65.24,84.74,61.79z"/>
			<path class="st0" d="M100.48,66.33V58.6h-2.52c-0.78,0-1.38-0.57-1.38-1.35c0-0.76,0.59-1.35,1.38-1.35h8.25
				c0.81,0,1.38,0.59,1.38,1.35c0,0.78-0.57,1.35-1.38,1.35h-2.54v7.73c0,0.93-0.67,1.64-1.59,1.64
				C101.17,67.97,100.48,67.26,100.48,66.33z"/>
		</g>
	</g>
	<g>
		<polygon class="st1" points="56.57,27.87 79.15,50.46 83.2,50.46 56.57,23.83 29.95,50.46 33.99,50.46 		"/>
		<polygon class="st2" points="56.57,86.15 43.89,73.47 39.84,73.47 56.57,90.2 73.3,73.47 69.26,73.47 		"/>
		<polygon class="st1" points="56.57,77.73 52.31,73.47 48.26,73.47 56.57,81.77 64.88,73.47 60.84,73.47 		"/>
		<polygon class="st2" points="56.57,36.3 70.73,50.46 74.78,50.46 56.57,32.25 38.37,50.46 42.41,50.46 		"/>
	</g>
</g>
</svg>
